<svg version="1.1" xmlns="http://www.w3.org/2000/svg" xmlns:xlink="http://www.w3.org/1999/xlink" width="828" height="668"><defs/><g><g transform="translate(-262,-78) scale(1,1)"><rect fill="#C0C0C0" stroke="none" x="543" y="95" width="544" height="648" opacity="0.2"/></g><g transform="translate(-262,-78) scale(1,1)"><rect fill="#ffffff" stroke="none" x="536" y="88" width="544" height="648"/></g><g transform="translate(-262,-78) scale(1,1)"><path fill="none" stroke="#000000" d="M 536 88 L 1080 88 L 1080 736 L 536 736 L 536 88 Z Z" stroke-miterlimit="10"/></g><g transform="translate(-262,-78) scale(1,1)"><g><path fill="none" stroke="none"/><text fill="#000000" stroke="none" font-family="霞骛文楷等宽" font-size="22px" font-style="normal" font-weight="bold" text-decoration="none" x="709" y="113.5">Realizar un pedido</text></g></g><g transform="translate(-262,-78) scale(1,1)"><path fill="#C0C0C0" stroke="none" d="M 631 267 C 631 233.862912 713.827312 207 816 207 C 918.172688 207 1001 233.862912 1001 267 C 1001 300.137088 918.172688 327 816 327 C 713.827312 327 631 300.137088 631 267 Z" opacity="0.2"/></g><g transform="translate(-262,-78) scale(1,1)"><path fill="#ffffff" stroke="none" d="M 624 260 C 624 226.862912 706.827312 200 809 200 C 911.172688 200 994 226.862912 994 260 C 994 293.137088 911.172688 320 809 320 C 706.827312 320 624 293.137088 624 260 Z"/></g><g transform="translate(-262,-78) scale(1,1)"><path fill="none" stroke="#000000" d="M 624 260 C 624 226.862912 706.827312 200 809 200 C 911.172688 200 994 226.862912 994 260 C 994 293.137088 911.172688 320 809 320 C 706.827312 320 624 293.137088 624 260 Z" stroke-miterlimit="10"/></g><g transform="translate(-262,-78) scale(1,1)"><g><path fill="none" stroke="none"/><text fill="#000000" stroke="none" font-family="霞骛文楷等宽" font-size="22px" font-style="normal" font-weight="bold" text-decoration="none" x="682.5" y="268.5">Busqueda en el catalogo</text></g></g><g transform="translate(-262,-78) scale(1,1)"><path fill="#C0C0C0" stroke="none" d="M 639 398.5 C 639 363.4299152 721.1557392 335 822.5 335 C 923.8442608 335 1006 363.4299152 1006 398.5 C 1006 433.5700848 923.8442608 462 822.5 462 C 721.1557392 462 639 433.5700848 639 398.5 Z" opacity="0.2"/></g><g transform="translate(-262,-78) scale(1,1)"><path fill="#ffffff" stroke="none" d="M 632 391.5 C 632 356.4299152 714.1557392 328 815.5 328 C 916.8442608 328 999 356.4299152 999 391.5 C 999 426.5700848 916.8442608 455 815.5 455 C 714.1557392 455 632 426.5700848 632 391.5 Z"/></g><g transform="translate(-262,-78) scale(1,1)"><path fill="none" stroke="#000000" d="M 632 391.5 C 632 356.4299152 714.1557392 328 815.5 328 C 916.8442608 328 999 356.4299152 999 391.5 C 999 426.5700848 916.8442608 455 815.5 455 C 714.1557392 455 632 426.5700848 632 391.5 Z" stroke-miterlimit="10"/></g><g transform="translate(-262,-78) scale(1,1)"><g><path fill="none" stroke="none"/><text fill="#000000" stroke="none" font-family="霞骛文楷等宽" font-size="22px" font-style="normal" font-weight="bold" text-decoration="none" x="733" y="400">Realizar pedido</text></g></g><g transform="translate(-262,-78) scale(1,1)"><path fill="#C0C0C0" stroke="none" d="M 655 550.5 C 655 515.4299152 728.2014352 487 818.5 487 C 908.7985648 487 982 515.4299152 982 550.5 C 982 585.5700848 908.7985648 614 818.5 614 C 728.2014352 614 655 585.5700848 655 550.5 Z" opacity="0.2"/></g><g transform="translate(-262,-78) scale(1,1)"><path fill="#ffffff" stroke="none" d="M 648 543.5 C 648 508.4299152 721.2014352 480 811.5 480 C 901.7985648 480 975 508.4299152 975 543.5 C 975 578.5700848 901.7985648 607 811.5 607 C 721.2014352 607 648 578.5700848 648 543.5 Z"/></g><g transform="translate(-262,-78) scale(1,1)"><path fill="none" stroke="#000000" d="M 648 543.5 C 648 508.4299152 721.2014352 480 811.5 480 C 901.7985648 480 975 508.4299152 975 543.5 C 975 578.5700848 901.7985648 607 811.5 607 C 721.2014352 607 648 578.5700848 648 543.5 Z" stroke-miterlimit="10"/></g><g transform="translate(-262,-78) scale(1,1)"><g><path fill="none" stroke="none"/><text fill="#000000" stroke="none" font-family="霞骛文楷等宽" font-size="22px" font-style="normal" font-weight="bold" text-decoration="none" x="707" y="552">Revision del pedido</text></g></g><g transform="translate(-262,-78) scale(1,1)"><path fill="#ffffff" stroke="none" d="M 295.03345454545456 334.08 C 295.03345454545456 318.019558016 307.55450203694545 305 323 305 C 338.44549796305455 305 350.96654545454544 318.019558016 350.96654545454544 334.08 C 350.96654545454544 350.14044198399995 338.44549796305455 363.15999999999997 323 363.15999999999997 C 307.55450203694545 363.15999999999997 295.03345454545456 350.14044198399995 295.03345454545456 334.08 Z"/></g><g transform="translate(-262,-78) scale(1,1)"><path fill="none" stroke="#000000" d="M 295.03345454545456 334.08 C 295.03345454545456 318.019558016 307.55450203694545 305 323 305 C 338.44549796305455 305 350.96654545454544 318.019558016 350.96654545454544 334.08 C 350.96654545454544 350.14044198399995 338.44549796305455 363.15999999999997 323 363.15999999999997 C 307.55450203694545 363.15999999999997 295.03345454545456 350.14044198399995 295.03345454545456 334.08 Z" stroke-miterlimit="10"/></g><g transform="translate(-262,-78) scale(1,1)"><path fill="none" stroke="#000000" d="M 323 363.15999999999997 L 323 418.84000000000003" stroke-miterlimit="10"/></g><g transform="translate(-262,-78) scale(1,1)"><path fill="none" stroke="#000000" d="M 293.38836363636364 384.04 L 352.61163636363636 384.04" stroke-miterlimit="10"/></g><g transform="translate(-262,-78) scale(1,1)"><path fill="none" stroke="#000000" d="M 323 418.84000000000003 L 281.8727272727273 477" stroke-miterlimit="10"/></g><g transform="translate(-262,-78) scale(1,1)"><path fill="none" stroke="#000000" d="M 323 418.84000000000003 L 364.1272727272727 477" stroke-miterlimit="10"/></g><g transform="translate(-262,-78) scale(1,1)"><g><path fill="none" stroke="none"/><text fill="#000000" stroke="none" font-family="霞骛文楷等宽" font-size="22px" font-style="normal" font-weight="bold" text-decoration="none" x="284.5" y="503.5">cliente</text></g></g><g transform="translate(-262,-78) scale(1,1)"><path fill="none" stroke="#000000" d="M 375 392 L 623 317" stroke-miterlimit="10"/></g><g transform="translate(-262,-78) scale(1,1)"><path fill="none" stroke="#000000" d="M 375 406 L 631 397" stroke-miterlimit="10"/></g><g transform="translate(-262,-78) scale(1,1)"><path fill="none" stroke="#000000" d="M 375 422 L 647 498" stroke-miterlimit="10"/></g></g></svg>